<svg width="16" height="15" viewBox="0 0 16 15" fill="none" xmlns="http://www.w3.org/2000/svg">
<g clip-path="url(#clip0_52_2085)">
<path fill-rule="evenodd" clip-rule="evenodd" d="M13.4801 2.37524C13.1872 2.08235 12.7124 2.08235 12.4195 2.37524L2.51997 12.2747C2.22707 12.5676 2.22707 13.0425 2.51997 13.3354C2.81286 13.6283 3.28773 13.6283 3.58063 13.3354L13.4801 3.4359C13.773 3.14301 13.773 2.66813 13.4801 2.37524Z" fill="white"/>
<path fill-rule="evenodd" clip-rule="evenodd" d="M9.94459 -1.16029C9.65169 -1.45319 9.17682 -1.45319 8.88393 -1.16029L-1.01557 8.7392C-1.30846 9.03209 -1.30846 9.50697 -1.01557 9.79986C-0.722675 10.0928 -0.247802 10.0928 0.0450918 9.79986L9.94459 -0.0996328C10.2375 -0.392526 10.2375 -0.8674 9.94459 -1.16029Z" fill="white"/>
<path fill-rule="evenodd" clip-rule="evenodd" d="M17.0157 5.91077C16.7228 5.61788 16.2479 5.61788 15.955 5.91077L6.0555 15.8103C5.76261 16.1032 5.76261 16.578 6.0555 16.8709C6.34839 17.1638 6.82327 17.1638 7.11616 16.8709L17.0157 6.97143C17.3085 6.67854 17.3085 6.20367 17.0157 5.91077Z" fill="white"/>
</g>
<g clip-path="url(#clip1_52_2085)">
<path fill-rule="evenodd" clip-rule="evenodd" d="M2.51988 2.37524C2.81277 2.08235 3.28765 2.08235 3.58054 2.37524L13.48 12.2747C13.7729 12.5676 13.7729 13.0425 13.48 13.3354C13.1871 13.6283 12.7123 13.6283 12.4194 13.3354L2.51988 3.4359C2.22699 3.14301 2.22699 2.66813 2.51988 2.37524Z" fill="white"/>
<path fill-rule="evenodd" clip-rule="evenodd" d="M6.05541 -1.16029C6.34831 -1.45319 6.82318 -1.45319 7.11607 -1.16029L17.0156 8.7392C17.3085 9.03209 17.3085 9.50697 17.0156 9.79986C16.7227 10.0928 16.2478 10.0928 15.9549 9.79986L6.05541 -0.0996328C5.76252 -0.392526 5.76252 -0.8674 6.05541 -1.16029Z" fill="white"/>
<path fill-rule="evenodd" clip-rule="evenodd" d="M-1.01565 5.91077C-0.72276 5.61788 -0.247887 5.61788 0.0450066 5.91077L9.9445 15.8103C10.2374 16.1032 10.2374 16.578 9.9445 16.8709C9.65161 17.1638 9.17673 17.1638 8.88384 16.8709L-1.01565 6.97143C-1.30855 6.67854 -1.30855 6.20367 -1.01565 5.91077Z" fill="white"/>
</g>
<defs>
<clipPath id="clip0_52_2085">
<rect width="16" height="5" fill="white" transform="translate(0.575195 11.3906) rotate(-45)"/>
</clipPath>
<clipPath id="clip1_52_2085">
<rect width="16" height="5" fill="white" transform="matrix(-0.707107 -0.707107 -0.707107 0.707107 15.4248 11.3906)"/>
</clipPath>
</defs>
</svg>
